HIERARCHY
ROOT Hips
{
  OFFSET 0 0 0
  CHANNELS 6 Xposition Yposition Zposition Zrotation Yrotation Xrotation
  JOINT LeftThigh
  {
    OFFSET 8.409438 0 -5.917753
    CHANNELS 3 Zrotation Yrotation Xrotation
    JOINT LeftLeg
    {
      OFFSET 0 0 -42.358652
      CHANNELS 3 Zrotation Yrotation Xrotation
      JOINT LeftFoot
      {
        OFFSET 0 0 -39.357303
        CHANNELS 3 Zrotation Yrotation Xrotation
      }
    }
  }
  JOINT RightThigh
  {
    OFFSET -8.409438 0 -5.917753
    CHANNELS 3 Zrotation Yrotation Xrotation
    JOINT RightLeg
    {
      OFFSET 0 0 -42.358652
      CHANNELS 3 Zrotation Yrotation Xrotation
      JOINT RightFoot
      {
        OFFSET 0 0 -39.357303
        CHANNELS 3 Zrotation Yrotation Xrotation
      }
    }
  }
  JOINT SpineLow
  {
    OFFSET 0 0 4.719101
    CHANNELS 3 Zrotation Yrotation Xrotation
    JOINT SpineMid
    {
      OFFSET 0 0 12.899191
      CHANNELS 3 Zrotation Yrotation Xrotation
      JOINT Chest
      {
        OFFSET 0 0 12.899191
        CHANNELS 3 Zrotation Yrotation Xrotation
        JOINT LeftShoulder
        {
          OFFSET 7.550562 1.41573 9.438202
          CHANNELS 3 Zrotation Yrotation Xrotation
          JOINT LeftArm
          {
            OFFSET 9.155056 0 4.247191
            CHANNELS 3 Zrotation Yrotation Xrotation
            JOINT LeftForearm
            {
              OFFSET 0 0 25.771955
              CHANNELS 3 Zrotation Yrotation Xrotation
              JOINT LeftHand
              {
                OFFSET 0 0 25.197169
                CHANNELS 3 Zrotation Yrotation Xrotation
              }
            }
          }
        }
        JOINT RightShoulder
        {
          OFFSET -7.550562 1.41573 9.438202
          CHANNELS 3 Zrotation Yrotation Xrotation
          JOINT RightArm
          {
            OFFSET -9.155056 0 4.247191
            CHANNELS 3 Zrotation Yrotation Xrotation
            JOINT RightForearm
            {
              OFFSET 0 0 -25.771955
              CHANNELS 3 Zrotation Yrotation Xrotation
              JOINT RightHand
              {
                OFFSET 0 0 -25.197169
                CHANNELS 3 Zrotation Yrotation Xrotation
              }
            }
          }
        }
        JOINT Neck
        {
          OFFSET 0 0 15.101124
          CHANNELS 3 Zrotation Yrotation Xrotation
          JOINT Head
          {
            OFFSET 0 0 11.325843
            CHANNELS 3 Zrotation Yrotation Xrotation
            End Site
            {
              OFFSET 0 0 14.157303
            }
          }
        }
      }
    }
  }
}
MOTION
Frames: 7
Frame Time: 0.0
0.0  101.685394  0.0  -6.720909  10.280587  -120.688183  9.142547  -18.740962  -2.499612  -19.75111  18.989935  40.48095  -4.707564  2.537836  -1.605889  11.91734  -11.658203  -80.425692  5.141386  19.221173  60.233758  -4.686488  -14.545557  -0.145245  -1.283971  -0.477581  3.817434  -3.57513  -1.098968  10.457455  -3.57513  -1.098968  10.457455  -1.628368  27.300025  26.106532  100.771958  42.021072  167.628246  -11.840674  1.482536  109.948878  78.437649  1.048492  -22.09509  14.679456  -10.24773  27.66481  -16.698789  80.625881  -84.28075  -29.790045  -3.64672  -69.676065  57.498342  8.442586  21.246849  -7.6328  0.61183  7.264175  -5.732779  0.368264  5.45673  
0.0  101.685394  0.0  -5.990652  9.498398  -120.401466  7.324959  -17.357399  -2.688767  -18.260417  18.844959  41.477347  -3.483245  2.714082  -1.433882  11.272696  -15.376123  -77.986203  8.411197  16.418512  45.059454  -8.890008  -16.815429  1.532261  -1.330136  -0.331509  3.862763  -3.678122  -0.69115  10.573403  -3.678122  -0.69115  10.573403  -1.206878  27.363701  26.286656  101.650156  42.531863  168.532596  -11.85986  0.987372  109.423049  78.093494  1.132536  -20.336329  15.499887  -10.328888  27.282582  -12.827662  80.775654  -81.247716  -29.97411  -2.558414  -69.626302  57.376718  8.665548  21.26851  -7.675425  0.644797  7.246389  -5.765114  0.392715  5.443851  
0.0  101.685394  0.0  -5.358157  9.341464  -120.10194  4.828889  -15.473767  -3.07151  -16.504345  18.453955  42.586536  -2.27254  2.705401  -1.195269  10.337575  -17.080896  -74.633921  8.713845  13.94196  28.697005  -12.756962  -16.615929  3.598061  -1.513242  -0.182462  3.832041  -4.15325  -0.257801  10.481253  -4.15325  -0.257801  10.481252  -0.222302  27.303971  26.989567  102.652382  43.063147  169.660986  -11.780668  0.353415  108.94018  77.949007  1.321001  -18.747787  16.530292  -10.25491  27.383602  -9.286357  80.966748  -78.405551  -30.113845  -1.798023  -69.815213  57.41705  8.806969  21.168091  -7.679559  0.764323  7.404635  -5.769849  0.480356  5.56404  
0.0  101.685394  0.0  -4.718375  9.653535  -119.768048  2.415185  -13.309381  -3.687206  -14.74542  17.916964  43.728904  -0.956396  2.630003  -0.795772  8.748295  -11.351414  -71.742618  4.953726  7.524963  16.894462  -17.885496  -15.890227  2.361044  -1.746938  -0.018832  3.790663  -4.764568  0.221934  10.356571  -4.764567  0.221934  10.35657  0.760203  26.951125  27.554991  103.788809  43.33853  170.863981  -11.540846  -0.337354  108.751692  77.861609  1.46124  -17.44123  17.476425  -10.012839  27.365117  -5.207865  81.081795  -74.987366  -30.143101  -1.674261  -70.276355  57.397689  8.857154  20.92762  -7.750605  0.864525  7.540713  -5.824562  0.552953  5.667472  
0.0  101.685394  0.0  -4.089588  10.098637  -119.452404  0.706066  -11.321776  -4.258604  -13.092414  17.189231  44.729023  -0.529655  2.48176  -0.605316  9.204166  -3.646227  -69.7277  -0.351733  4.325444  5.56173  -23.144542  -15.354491  4.398451  -1.916542  0.1502  3.800315  -5.200429  0.709606  10.36873  -5.200429  0.709606  10.368731  1.136188  26.185463  27.476146  104.909425  43.172156  172.081201  -11.182965  -1.042401  108.772084  77.73749  1.41691  -16.321581  18.197728  -9.785863  26.680067  0.182566  81.026825  -70.043001  -29.943568  -2.195981  -71.007121  57.39451  8.777928  20.682245  -8.081059  0.806301  7.521397  -6.071708  0.505451  5.652788  
0.0  101.685394  0.0  -3.498612  10.022649  -119.499163  0.728519  -10.217895  -3.897011  -11.887483  16.138682  45.141538  -1.354735  2.50583  -0.685564  10.966641  2.283955  -67.057923  -7.942314  2.545745  -4.020445  -25.643107  -13.442649  7.255986  -1.938708  0.255593  3.898107  -5.242687  1.007826  10.62746  -5.242687  1.007827  10.627461  0.910454  25.436305  26.664179  105.761859  42.575027  173.004226  -10.850127  -1.675026  108.899626  77.44298  1.194791  -15.100497  18.718204  -9.434789  25.391484  7.527912  80.801373  -62.883768  -29.760841  -2.652656  -71.74387  57.162457  8.618829  20.424292  -8.570278  0.742922  7.404437  -6.43774  0.453523  5.564966  
0.0  101.685394  0.0  -2.993588  9.041541  -120.204864  2.748487  -10.646373  -2.196075  -11.317892  14.999695  44.902963  -3.56078  2.894964  -1.222315  15.312669  -0.652788  -63.431357  -10.522831  5.331949  -10.228207  -25.555533  -11.883457  8.973627  -1.824767  0.280299  4.120908  -4.923904  1.073305  11.23645  -4.923904  1.073305  11.236451  0.661488  24.975882  25.170002  106.067162  41.75393  173.330471  -10.681011  -2.179347  109.150702  77.014636  1.077708  -13.514366  19.30442  -8.804232  23.680744  16.045063  80.407055  -54.508362  -29.61758  -2.984393  -72.37717  57.007046  8.524954  20.581713  -8.935269  0.762673  7.096951  -6.711282  0.468419  5.335139  
